<svg width="38" height="38" viewBox="0 0 38 38" fill="none" xmlns="http://www.w3.org/2000/svg">
<path d="M1.375 19H3.33333M19 1.375V3.33333M34.6667 19H36.625M6.46667 6.46667L7.8375 7.8375M31.5333 6.46667L30.1625 7.8375M14.4958 28.7917H23.5042M13.125 26.8333C11.4809 25.6003 10.2665 23.8812 9.65372 21.9196C9.04096 19.9579 9.06093 17.8532 9.71081 15.9036C10.3607 13.954 11.6075 12.2582 13.2747 11.0566C14.9419 9.85495 16.9449 9.20833 19 9.20833C21.0551 9.20833 23.0581 9.85495 24.7253 11.0566C26.3925 12.2582 27.6393 13.954 28.2892 15.9036C28.9391 17.8532 28.959 19.9579 28.3463 21.9196C27.7335 23.8812 26.5191 25.6003 24.875 26.8333C24.1104 27.5902 23.5347 28.5164 23.1945 29.5371C22.8543 30.5577 22.7591 31.6441 22.9167 32.7083C22.9167 33.7471 22.504 34.7433 21.7695 35.4778C21.035 36.2124 20.0388 36.625 19 36.625C17.9612 36.625 16.965 36.2124 16.2305 35.4778C15.496 34.7433 15.0833 33.7471 15.0833 32.7083C15.2409 31.6441 15.1457 30.5577 14.8055 29.5371C14.4653 28.5164 13.8896 27.5902 13.125 26.8333Z" stroke="#5FC17F" stroke-width="2" stroke-linecap="round" stroke-linejoin="round"/>
</svg>
