<svg width="70" height="70" viewBox="0 0 70 70" fill="none" xmlns="http://www.w3.org/2000/svg">
<rect width="70" height="70" rx="35" fill="#FFEBE3"/>
<path d="M34.9998 37.8933C32.1598 37.8933 29.8398 35.5867 29.8398 32.7333C29.8398 29.88 32.1598 27.5867 34.9998 27.5867C37.8398 27.5867 40.1598 29.8933 40.1598 32.7467C40.1598 35.6 37.8398 37.8933 34.9998 37.8933ZM34.9998 29.5867C33.2665 29.5867 31.8398 31 31.8398 32.7467C31.8398 34.4933 33.2532 35.9067 34.9998 35.9067C36.7465 35.9067 38.1598 34.4933 38.1598 32.7467C38.1598 31 36.7332 29.5867 34.9998 29.5867Z" fill="#F25417"/>
<path d="M35.0002 49.3467C33.0269 49.3467 31.0402 48.6 29.4936 47.12C25.5602 43.3333 21.2136 37.2933 22.8536 30.1067C24.3336 23.5867 30.0269 20.6667 35.0002 20.6667C35.0002 20.6667 35.0002 20.6667 35.0136 20.6667C39.9869 20.6667 45.6802 23.5867 47.1602 30.12C48.7869 37.3067 44.4402 43.3333 40.5069 47.12C38.9602 48.6 36.9736 49.3467 35.0002 49.3467ZM35.0002 22.6667C31.1202 22.6667 26.1336 24.7333 24.8136 30.5467C23.3736 36.8267 27.3202 42.24 30.8936 45.6667C33.2002 47.8933 36.8136 47.8933 39.1202 45.6667C42.6802 42.24 46.6269 36.8267 45.2136 30.5467C43.8802 24.7333 38.8802 22.6667 35.0002 22.6667Z" fill="#F25417"/>
</svg>
