<svg width="40" height="40" viewBox="0 0 40 40" fill="none" xmlns="http://www.w3.org/2000/svg">
<path d="M26.5167 20.6167H34.3334C34.2001 28.4 32.6667 29.6833 27.8834 32.5167C27.3334 32.85 27.1501 33.55 27.4834 34.1167C27.8167 34.6667 28.5167 34.85 29.0834 34.5167C34.7167 31.1833 36.6834 29.15 36.6834 19.45V10.4667C36.6834 7.61665 34.3667 5.31665 31.5334 5.31665H26.5334C23.6001 5.31665 21.3834 7.53332 21.3834 10.4667V15.4667C21.3667 18.4 23.5834 20.6167 26.5167 20.6167Z" fill="#F25417"/>
<path d="M8.4835 20.6167H16.3002C16.1668 28.4 14.6335 29.6833 9.85016 32.5167C9.30016 32.85 9.11683 33.55 9.45016 34.1167C9.7835 34.6667 10.4835 34.85 11.0502 34.5167C16.6835 31.1833 18.6502 29.15 18.6502 19.45V10.4667C18.6502 7.61665 16.3335 5.31665 13.5002 5.31665H8.50016C5.55016 5.31665 3.3335 7.53332 3.3335 10.4667V15.4667C3.3335 18.4 5.55016 20.6167 8.4835 20.6167Z" fill="#F25417"/>
</svg>
