<svg width="70" height="70" viewBox="0 0 70 70" fill="none" xmlns="http://www.w3.org/2000/svg">
<rect width="70" height="70" rx="35" fill="#FFEBE3"/>
<path d="M35 40C29.48 40 25 35.6667 25 30.3333C25 25 29.48 20.6667 35 20.6667C40.52 20.6667 45 25 45 30.3333C45 35.6667 40.52 40 35 40ZM35 22.6667C30.5867 22.6667 27 26.1067 27 30.3333C27 34.56 30.5867 38 35 38C39.4133 38 43 34.56 43 30.3333C43 26.1067 39.4133 22.6667 35 22.6667Z" fill="#F25417"/>
<path d="M39.8268 49.3333C39.4535 49.3333 39.0802 49.24 38.6935 49.0666L35.1068 47.3733C35.0668 47.36 34.9202 47.36 34.8668 47.3733L31.3069 49.0533C30.5202 49.4266 29.6935 49.4133 29.0535 49C28.3868 48.5733 28.0002 47.7867 28.0135 46.8533L28.0268 37.0133C28.0268 36.4666 28.4535 35.9866 29.0268 36.0133C29.5735 36.0133 30.0268 36.4666 30.0268 37.0133L30.0135 46.8533C30.0135 47.1467 30.0935 47.2933 30.1335 47.3067C30.1602 47.32 30.2802 47.3333 30.4668 47.24L34.0402 45.5466C34.6135 45.28 35.4002 45.28 35.9735 45.5466L39.5602 47.24C39.7469 47.3333 39.8669 47.32 39.8935 47.3067C39.9335 47.28 40.0135 47.1333 40.0135 46.8533V36.7733C40.0135 36.2266 40.4669 35.7733 41.0135 35.7733C41.5602 35.7733 42.0135 36.2266 42.0135 36.7733V46.8533C42.0135 47.8 41.6268 48.5733 40.9602 49C40.6135 49.2266 40.2268 49.3333 39.8268 49.3333Z" fill="#F25417"/>
</svg>
