<svg width="70" height="70" viewBox="0 0 70 70" fill="none" xmlns="http://www.w3.org/2000/svg">
<rect width="70" height="70" rx="35" fill="#FFEBE3"/>
<path d="M31.2129 34.4933C31.1729 34.4933 31.1463 34.4933 31.1063 34.4933C31.0396 34.48 30.9463 34.48 30.8663 34.4933C26.9996 34.3733 24.0796 31.3333 24.0796 27.5867C24.0796 23.7733 27.1863 20.6667 30.9996 20.6667C34.8129 20.6667 37.9196 23.7733 37.9196 27.5867C37.9063 31.3333 34.9729 34.3733 31.2529 34.4933C31.2396 34.4933 31.2263 34.4933 31.2129 34.4933ZM30.9996 22.6667C28.2929 22.6667 26.0796 24.88 26.0796 27.5867C26.0796 30.2533 28.1596 32.4 30.8129 32.4933C30.8929 32.48 31.0663 32.48 31.2396 32.4933C33.8529 32.3733 35.9063 30.2267 35.9196 27.5867C35.9196 24.88 33.7063 22.6667 30.9996 22.6667Z" fill="#F25417"/>
<path d="M41.0527 34.6667C41.0127 34.6667 40.9727 34.6667 40.9327 34.6533C40.386 34.7067 39.826 34.32 39.7727 33.7733C39.7193 33.2267 40.0527 32.7333 40.5993 32.6667C40.7593 32.6533 40.9327 32.6533 41.0793 32.6533C43.026 32.5467 44.546 30.9467 44.546 28.9867C44.546 26.96 42.906 25.32 40.8793 25.32C40.3327 25.3333 39.8793 24.88 39.8793 24.3333C39.8793 23.7867 40.3327 23.3333 40.8793 23.3333C43.9993 23.3333 46.546 25.88 46.546 29C46.546 32.0667 44.146 34.5467 41.0927 34.6667C41.0793 34.6667 41.066 34.6667 41.0527 34.6667Z" fill="#F25417"/>
<path d="M31.2261 49.0667C28.6128 49.0667 25.9861 48.4 23.9995 47.0667C22.1461 45.84 21.1328 44.16 21.1328 42.3333C21.1328 40.5067 22.1461 38.8133 23.9995 37.5733C27.9995 34.92 34.4795 34.92 38.4528 37.5733C40.2928 38.8 41.3195 40.48 41.3195 42.3067C41.3195 44.1333 40.3061 45.8267 38.4528 47.0667C36.4528 48.4 33.8395 49.0667 31.2261 49.0667ZM25.1061 39.2533C23.8261 40.1067 23.1328 41.2 23.1328 42.3467C23.1328 43.48 23.8395 44.5733 25.1061 45.4133C28.4261 47.64 34.0261 47.64 37.3461 45.4133C38.6261 44.56 39.3195 43.4667 39.3195 42.32C39.3195 41.1867 38.6128 40.0933 37.3461 39.2533C34.0261 37.04 28.4261 37.04 25.1061 39.2533Z" fill="#F25417"/>
<path d="M43.4526 46.6667C42.9859 46.6667 42.5726 46.3467 42.4792 45.8667C42.3726 45.32 42.7192 44.8 43.2526 44.68C44.0926 44.5067 44.8659 44.1733 45.4659 43.7067C46.2259 43.1333 46.6392 42.4133 46.6392 41.6533C46.6392 40.8933 46.2259 40.1733 45.4792 39.6133C44.8926 39.16 44.1592 38.84 43.2926 38.64C42.7592 38.52 42.4126 37.9867 42.5326 37.44C42.6526 36.9067 43.1859 36.56 43.7326 36.68C44.8792 36.9333 45.8792 37.3867 46.6926 38.0133C47.9326 38.9467 48.6392 40.2667 48.6392 41.6533C48.6392 43.04 47.9192 44.36 46.6792 45.3067C45.8526 45.9467 44.8126 46.4133 43.6659 46.64C43.5859 46.6667 43.5192 46.6667 43.4526 46.6667Z" fill="#F25417"/>
</svg>
